<svg xmlns="http://www.w3.org/2000/svg" viewBox="0 0 100 100">
  <rect x="15" y="15" width="70" height="70" rx="10" fill="none" stroke="white" stroke-width="5"/>
  <rect x="25" y="25" width="50" height="50" rx="5" fill="white"/>
  <circle cx="50" cy="50" r="15" fill="none" stroke="black" stroke-width="2"/>
  <line x1="15" y1="30" x2="5" y2="30" stroke="white" stroke-width="3"/>
  <line x1="15" y1="50" x2="5" y2="50" stroke="white" stroke-width="3"/>
  <line x1="15" y1="70" x2="5" y2="70" stroke="white" stroke-width="3"/>
  <line x1="85" y1="30" x2="95" y2="30" stroke="white" stroke-width="3"/>
  <line x1="85" y1="50" x2="95" y2="50" stroke="white" stroke-width="3"/>
  <line x1="85" y1="70" x2="95" y2="70" stroke="white" stroke-width="3"/>
  <line x1="30" y1="15" x2="30" y2="5" stroke="white" stroke-width="3"/>
  <line x1="50" y1="15" x2="50" y2="5" stroke="white" stroke-width="3"/>
  <line x1="70" y1="15" x2="70" y2="5" stroke="white" stroke-width="3"/>
  <line x1="30" y1="85" x2="30" y2="95" stroke="white" stroke-width="3"/>
  <line x1="50" y1="85" x2="50" y2="95" stroke="white" stroke-width="3"/>
  <line x1="70" y1="85" x2="70" y2="95" stroke="white" stroke-width="3"/>
</svg>
